<svg width="44" height="42" viewBox="0 0 44 42" fill="none" xmlns="http://www.w3.org/2000/svg">
  <path fill-rule="evenodd" clip-rule="evenodd"
    d="M43.7101 21.1056L43.7104 21C43.7104 9.40202 33.9255 0 21.8552 0C10.5872 0 1.31091 8.19365 0.127497 18.7185L12.2654 24.4203C12.86 23.621 13.8338 23.1 14.9343 23.1C15.8693 23.1 16.7128 23.4761 17.3101 24.0794L26.9548 16.4338C26.9639 14.7016 28.4281 13.3 30.233 13.3C31.9091 13.3 33.2914 14.5087 33.4875 16.0684L43.7101 21.1056ZM18.1958 25.9294L27.6724 18.4172C28.2732 19.1382 29.197 19.6 30.233 19.6C31.4237 19.6 32.4661 18.9901 33.0403 18.0777L43.5839 23.273C42.4045 33.8019 33.1262 42 21.8552 42C9.78491 42 0 32.598 0 21C0 20.9561 0.000140103 20.9123 0.000419904 20.8684L11.6575 26.3444C11.7095 28.0404 13.1566 29.4 14.9343 29.4C16.7448 29.4 18.2126 27.9897 18.2126 26.25C18.2126 26.1418 18.2069 26.0348 18.1958 25.9294Z"
    fill="#605BFF" />
</svg>